# xmcd
#
# Track frame offsets:
#	150
#	21801
#	39010
#	56102
#	70859
#	100223
#	126471
#	147404
#	150121
#	216616
#	234234
#	310164
#
# Disc length: 4406 seconds
#
# Revision: 1
# Processed by: cddbd v1.5.2PL0 Copyright (c) Steve Scherf et al.
# Submitted via: audiograbber 1.83.01
#
DISCID=a211340c
DTITLE=Various Artist - Ann Arbor Blues Festival 1969 - Vols.1&2 [CD1]
DYEAR=1969
DGENRE=Blues
TTITLE0=Roosevelt Sykes - Dirty Mother for You
TTITLE1=Arthur "Big Boy" Crudup - So Glad You're Mine
TTITLE2=J.B.Hutto and His Hawks - Too Much Alcohol
TTITLE3=Jimmy "Fast Fingers" Dawkins - I Wonder Why
TTITLE4=Junior Wells - Help Me (A Tribute to Sonny Boy Williamson)
TTITLE5=B.B.King - I've Got a Mind to Give Up Living
TTITLE6=Mississippi Fred McDowell - John Henry
TTITLE7=Big Bill Hill - Intro - Everybody Must Suffer - Stone Crazy
TTITLE8=Luther Allison - Everybody Must Suffer - Stone Crazy
TTITLE9=Clifton Chenier - Tu m'as promis l'amour (You Promised Me Love)
TTITLE10=The Original Howlin' Wolf and his Orchestra - Hard Luck
TTITLE11=Otis Rush - So Many Road, So Many Trains
EXTD=
EXTT0=
EXTT1=
EXTT2=
EXTT3=
EXTT4=
EXTT5=
EXTT6=
EXTT7=
EXTT8=
EXTT9=
EXTT10=
EXTT11=
PLAYORDER=
